<svg width="45" height="44" viewBox="0 0 45 44" fill="none" xmlns="http://www.w3.org/2000/svg">
<path d="M2.81162 33.0021L10.9452 28.0653C10.9452 28.0653 7.41244 22.8818 10.9452 16.6285C14.478 10.3753 21.0506 10.6222 21.0506 10.6222V1.24234C21.0506 1.24234 9.13777 0.584109 2.81162 11.7741C-3.51453 22.964 2.81162 33.0021 2.81162 33.0021Z" fill="#F48405"/>
<path d="M39.3704 31.9613L30.9234 27.5843C30.9234 27.5843 28.3485 33.3059 21.1784 33.5471C14.0083 33.7882 10.927 28.0581 10.927 28.0581L2.79958 32.933C2.79958 32.933 8.44972 43.4568 21.2826 43.029C34.1155 42.6011 39.3704 31.9613 39.3704 31.9613Z" fill="#0D6EFD"/>
<path d="M21.0323 0.000862269L21.0323 10.6149C21.0323 10.6149 27.251 10.5537 30.7223 16.8413C34.1936 23.129 30.8913 27.6467 30.8913 27.6467L41.3253 33.1594C41.3253 33.1594 47.5348 22.1993 41.3253 10.944C35.1158 -0.311312 21.0323 0.000862269 21.0323 0.000862269Z" fill="#3AA873"/>
<path d="M39.2714 32.0897L30.8913 27.6467L37.7104 34.5581C38.7199 33.1627 39.1178 32.5618 39.2714 32.0897Z" fill="black" fill-opacity="0.3"/>
<path d="M32.6988 22.1703C32.6988 28.6685 27.4388 33.9363 20.9502 33.9363C14.4617 33.9363 9.20167 28.6685 9.20167 22.1703C9.20167 15.6722 14.4617 10.4044 20.9502 10.4044C27.4388 10.4044 32.6988 15.6722 32.6988 22.1703Z" fill="white"/>
<path fill-rule="evenodd" clip-rule="evenodd" d="M17.8829 24.2294C18.8458 25.6099 20.8191 26.0899 22.178 25.1394C23.5365 24.189 24.3628 21.9136 25.6497 18.7964C22.2843 18.9335 19.8666 18.9273 18.5081 19.8776C17.1493 20.8282 16.9198 22.8485 17.8829 24.2294Z" fill="#DC4435"/>
</svg>
