<svg width="24" height="17" viewBox="0 0 24 17" fill="none" xmlns="http://www.w3.org/2000/svg">
<path fill-rule="evenodd" clip-rule="evenodd" d="M22.6059 1.34553C22.9184 1.65807 23.0939 2.08192 23.0939 2.52386C23.0939 2.9658 22.9184 3.38965 22.6059 3.70219L10.1137 16.1944C9.94863 16.3595 9.75263 16.4905 9.53691 16.5799C9.3212 16.6693 9.08999 16.7153 8.85649 16.7153C8.623 16.7153 8.39179 16.6693 8.17607 16.5799C7.96036 16.4905 7.76436 16.3595 7.59927 16.1944L1.3926 9.98886C1.23342 9.83512 1.10645 9.65121 1.0191 9.44787C0.931752 9.24453 0.885775 9.02583 0.883852 8.80453C0.881929 8.58323 0.924099 8.36377 1.0079 8.15894C1.0917 7.95411 1.21546 7.76802 1.37194 7.61154C1.52843 7.45505 1.71452 7.33129 1.91935 7.24749C2.12417 7.16369 2.34364 7.12152 2.56494 7.12344C2.78624 7.12537 3.00494 7.17134 3.20828 7.25869C3.41162 7.34604 3.59552 7.47301 3.74927 7.6322L8.85594 12.7389L20.2482 1.34553C20.4029 1.19065 20.5867 1.06779 20.789 0.983964C20.9913 0.90014 21.2081 0.856995 21.427 0.856995C21.646 0.856995 21.8628 0.90014 22.0651 0.983964C22.2674 1.06779 22.4512 1.19065 22.6059 1.34553Z" fill="white"/>
</svg>
