<svg width="36" height="36" viewBox="0 0 36 36" fill="none" xmlns="http://www.w3.org/2000/svg">
    <circle cx="18" cy="18" r="18" fill="#0D6EFD"/>
    <path fill-rule="evenodd" clip-rule="evenodd"
          d="M27.546 11.111C27.8272 11.3923 27.9852 11.7738 27.9852 12.1715C27.9852 12.5693 27.8272 12.9507 27.546 13.232L16.303 24.475C16.1544 24.6236 15.978 24.7415 15.7839 24.8219C15.5898 24.9024 15.3817 24.9438 15.1715 24.9438C14.9614 24.9438 14.7533 24.9024 14.5591 24.8219C14.365 24.7415 14.1886 24.6236 14.04 24.475L8.45403 18.89C8.31076 18.7516 8.19649 18.5861 8.11787 18.4031C8.03926 18.2201 7.99788 18.0233 7.99615 17.8241C7.99442 17.6249 8.03237 17.4274 8.10779 17.2431C8.18322 17.0587 8.29459 16.8913 8.43543 16.7504C8.57627 16.6096 8.74375 16.4982 8.92809 16.4228C9.11244 16.3474 9.30996 16.3094 9.50913 16.3111C9.7083 16.3129 9.90513 16.3542 10.0881 16.4329C10.2711 16.5115 10.4367 16.6257 10.575 16.769L15.171 21.365L25.424 11.111C25.5633 10.9716 25.7287 10.861 25.9108 10.7856C26.0928 10.7102 26.288 10.6713 26.485 10.6713C26.6821 10.6713 26.8772 10.7102 27.0593 10.7856C27.2413 10.861 27.4067 10.9716 27.546 11.111Z"
          fill="white"/>
</svg>
