<svg width="36" height="40" viewBox="0 0 36 40" fill="none" xmlns="http://www.w3.org/2000/svg">
<path d="M14.2649 24.9973C14.478 24.9973 14.6912 24.9153 14.8469 24.7513L16.5112 23.0625C16.8391 23.2182 17.208 23.3084 17.5933 23.3084C18.9788 23.3084 20.1102 22.1853 20.1102 20.7998C20.1102 20.4227 20.02 20.0701 19.8724 19.7586C19.8724 19.7586 19.8806 19.7586 19.8806 19.7504L21.8072 17.791V18.2993C21.8072 18.7502 22.1761 19.1191 22.627 19.1191C23.0779 19.1191 23.4468 18.7502 23.4468 18.2993V15.7989C23.4468 15.348 23.0861 14.9791 22.627 14.9791H20.1102C19.6593 14.9791 19.2904 15.348 19.2904 15.7989C19.2904 16.2498 19.6593 16.6187 20.1102 16.6187H20.6595L18.7165 18.6027C18.7165 18.6027 18.7165 18.6027 18.7083 18.6109C18.3722 18.4469 17.995 18.3567 17.6015 18.3567C16.216 18.3567 15.0847 19.4553 15.0847 20.7998C15.0847 21.2015 15.1831 21.5786 15.347 21.9147L13.6828 23.6036C13.3631 23.9233 13.3713 24.448 13.691 24.7595C13.8468 24.9153 14.0599 24.9973 14.2649 24.9973ZM17.6015 19.9964C18.077 19.9964 18.4787 20.3654 18.4787 20.7999C18.4787 21.2918 18.0934 21.6689 17.6015 21.6689C17.1096 21.6689 16.7243 21.2836 16.7243 20.7999C16.7243 20.3654 17.126 19.9964 17.6015 19.9964Z" fill="#0D6EFD"/>
<path d="M21.5613 5.42824C22.0859 3.84598 21.6023 2.05877 20.2659 0.98481C18.7821 -0.326902 16.4948 -0.3269 14.9453 0.976614C13.609 2.05058 13.1171 3.84598 13.6418 5.42824C5.83712 7.21544 0 14.1839 0 22.4887C0 32.1462 7.89487 40 17.6015 40C27.3082 40 35.2113 32.1462 35.2113 22.4887C35.2113 14.1838 29.3659 7.21536 21.5613 5.42824ZM15.9783 2.24734C15.9865 2.23914 15.9947 2.23914 15.9947 2.23094C16.9375 1.43571 18.3148 1.42751 19.192 2.21454C19.2002 2.22274 19.2166 2.23094 19.2248 2.24734C20.0856 2.93598 20.3561 4.13292 19.9134 5.1249C19.1592 5.02652 18.3804 4.97733 17.6015 4.97733C16.8227 4.97733 16.0439 5.02652 15.2896 5.1249C14.8387 4.13292 15.1093 2.9359 15.9783 2.24734ZM17.6015 38.3603C11.1823 38.3603 5.63216 34.5728 3.09892 29.121H32.0959C29.5709 34.5728 24.0207 38.3603 17.6015 38.3603ZM10.5183 14.1838C14.6256 10.798 20.5857 10.798 24.693 14.1838C28.6035 17.4057 29.6447 22.9313 27.2426 27.4813H7.96045C5.56658 22.9314 6.59955 17.4057 10.5183 14.1838ZM32.6944 27.4895H29.0626C30.0546 25.2432 30.3907 22.7509 29.989 20.3325C29.5135 17.4221 27.9968 14.7905 25.7341 12.9213C21.0202 9.04356 14.1911 9.04356 9.47712 12.9213C7.21441 14.7905 5.69775 17.4221 5.22225 20.3325C4.82054 22.7509 5.15667 25.2432 6.14865 27.4895H2.44306C1.91838 25.9155 1.63144 24.243 1.63144 22.4968C1.63964 13.7411 8.79667 6.61689 17.6015 6.61689C26.4064 6.61689 33.5716 13.7329 33.5716 22.4886C33.5716 24.2348 33.2847 25.9155 32.76 27.4895C32.7354 27.4895 32.719 27.4895 32.6944 27.4895Z" fill="#0D6EFD"/>
</svg>
