<svg width="40" height="40" viewBox="0 0 40 40" fill="none" xmlns="http://www.w3.org/2000/svg">
<g clip-path="url(#clip0_42_1481)">
<path d="M20.0002 0.000488281C8.95441 0.000488281 0 8.95393 0 20.0007C0 31.0456 8.95441 40 20.0002 40C31.0456 40 40 31.0456 40 20.0007C40 8.95393 31.0456 0.000488281 20.0002 0.000488281Z" fill="#3AA873"/>
<path d="M26.2002 22.5647C25.8341 22.3994 25.3479 22.3167 24.7417 22.3167H24.2339V13.1762C24.2339 11.8063 23.6355 11.1213 22.4388 11.1213C22.0687 11.1213 21.7519 11.2453 21.4882 11.4933C21.2243 11.7413 20.8877 12.141 20.4785 12.692L14.2194 21.0649C14.0462 21.2933 13.9006 21.4862 13.7825 21.6435C13.6644 21.8012 13.5501 21.9644 13.44 22.1336C13.3296 22.303 13.247 22.4643 13.192 22.6178C13.1368 22.7713 13.1094 22.9231 13.1094 23.0725C13.1094 23.6552 13.2963 24.1158 13.6703 24.4543C14.0442 24.7929 14.6051 24.9621 15.3532 24.9621H21.2815V27.1586C21.2815 27.7491 21.4174 28.1961 21.689 28.499C21.9606 28.802 22.3168 28.9537 22.7578 28.9537C23.2065 28.9537 23.5647 28.8061 23.8324 28.5109C24.1 28.2157 24.2339 27.7651 24.2339 27.1587V24.9622H24.9543C25.5525 24.9622 26.0013 24.8579 26.3006 24.6492C26.5997 24.4407 26.7493 24.108 26.7493 23.6513C26.7494 23.0923 26.5663 22.7301 26.2002 22.5647ZM21.2816 22.3167H16.2036L21.2816 15.4554V22.3167Z" fill="white"/>
</g>
<defs>
<clipPath id="clip0_42_1481">
<rect width="40" height="40" fill="white"/>
</clipPath>
</defs>
</svg>
