<svg width="230" height="39" viewBox="0 0 230 39" fill="none" xmlns="http://www.w3.org/2000/svg">
<path d="M2.49681 29.1762L9.7197 24.8118C9.7197 24.8118 6.58248 20.2291 9.7197 14.7008C12.8569 9.17253 18.6936 9.39075 18.6936 9.39075V1.09832C18.6936 1.09832 8.11462 0.516394 2.49681 10.4091C-3.12101 20.3018 2.49681 29.1762 2.49681 29.1762Z" fill="#C6002A"/>
<path d="M34.9622 28.2561L27.4609 24.3865C27.4609 24.3865 25.1743 29.4448 18.8071 29.658C12.4398 29.8712 9.7035 24.8053 9.7035 24.8053L2.48611 29.1151C2.48611 29.1151 7.50361 38.4189 18.8996 38.0407C30.2957 37.6624 34.9622 28.2561 34.9622 28.2561Z" fill="#0D6EFD"/>
<path d="M18.6774 0.000762307L18.6773 9.3843C18.6773 9.3843 24.1997 9.33019 27.2823 14.8889C30.365 20.4477 27.4324 24.4416 27.4324 24.4416L36.6982 29.3152C36.6982 29.3152 42.2124 19.6258 36.6982 9.67527C31.1839 -0.275222 18.6774 0.000762307 18.6774 0.000762307Z" fill="#3AA873"/>
<path d="M34.8742 28.3696L27.4324 24.4416L33.488 30.5518C34.3845 29.3182 34.7378 28.787 34.8742 28.3696Z" fill="black" fill-opacity="0.3"/>
<path d="M28.7092 19.4872C28.7092 25.0478 24.1813 29.5556 18.5957 29.5556C13.0102 29.5556 8.48227 25.0478 8.48227 19.4872C8.48227 13.9266 13.0102 9.4188 18.5957 9.4188C24.1813 9.4188 28.7092 13.9266 28.7092 19.4872Z" fill="white"/>
<path fill-rule="evenodd" clip-rule="evenodd" d="M16.3884 14.2269C15.5455 14.5889 15.7276 15.6871 15.8687 16.5112L15.8707 16.5145C16.6131 16.2402 17.7027 15.8104 18.831 15.8146C19.9594 15.8187 20.4808 16.1397 20.2764 17.1043C20.0719 18.0689 19.0934 22.7537 19.0687 22.8722C18.8882 23.0036 16.4833 23.5291 16.5223 21.923C16.561 20.336 17.8022 19.7371 18.5424 19.4161C19.0715 19.1866 19.1109 17.9655 19.1975 17.6296C16.6374 17.9786 13.9279 18.905 13.4564 21.4828C12.9847 24.0605 14.618 24.9995 17.494 25.0106C20.3701 25.0217 21.9041 24.1763 21.9041 24.1763C21.9041 24.1763 22.9933 18.9938 23.2585 17.7101C23.5237 16.427 23.3867 15.3939 22.8261 14.7094C22.2673 14.0282 21.2683 13.641 19.9629 13.641C17.9725 13.641 16.6595 14.1146 16.3884 14.2269Z" fill="#C6002A"/>
<path d="M220.51 16.3172C220.927 15.6798 221.449 15.1809 222.076 14.8206C222.702 14.4465 223.398 14.2594 224.164 14.2594V18.0217H223.182C222.292 18.0217 221.623 18.2157 221.178 18.6037C220.733 18.9779 220.51 19.6431 220.51 20.5992V25.9829H216.939V14.3841H220.51V16.3172Z" fill="black"/>
<path d="M215.056 19.9964C215.056 20.329 215.035 20.6755 214.994 21.0357H206.913C206.969 21.7563 207.199 22.3106 207.602 22.6987C208.02 23.0728 208.528 23.2599 209.126 23.2599C210.017 23.2599 210.637 22.8857 210.985 22.1374H214.785C214.59 22.8996 214.235 23.5855 213.72 24.1953C213.219 24.805 212.586 25.2831 211.82 25.6295C211.054 25.976 210.198 26.1492 209.252 26.1492C208.11 26.1492 207.094 25.9067 206.203 25.4217C205.313 24.9367 204.617 24.2438 204.115 23.343C203.614 22.4423 203.364 21.3891 203.364 20.1835C203.364 18.9779 203.607 17.9247 204.095 17.024C204.596 16.1232 205.292 15.4304 206.182 14.9454C207.073 14.4603 208.096 14.2178 209.252 14.2178C210.379 14.2178 211.381 14.4534 212.258 14.9246C213.135 15.3957 213.817 16.0678 214.305 16.9408C214.806 17.8139 215.056 18.8324 215.056 19.9964ZM211.402 19.061C211.402 18.4513 211.194 17.9663 210.776 17.606C210.358 17.2457 209.836 17.0656 209.21 17.0656C208.611 17.0656 208.103 17.2388 207.686 17.5852C207.282 17.9317 207.032 18.4236 206.934 19.061H211.402Z" fill="black"/>
<path d="M202.085 22.9689V25.9829H200.268C198.974 25.9829 197.965 25.6711 197.241 25.0475C196.517 24.4101 196.155 23.3777 196.155 21.9504V17.3358H194.735V14.3841H196.155V11.5572H199.726V14.3841H202.064V17.3358H199.726V21.9919C199.726 22.3384 199.809 22.5878 199.976 22.7402C200.143 22.8927 200.422 22.9689 200.811 22.9689H202.085Z" fill="black"/>
<path d="M193.708 19.9964C193.708 20.329 193.687 20.6755 193.645 21.0357H185.565C185.62 21.7563 185.85 22.3106 186.254 22.6987C186.671 23.0728 187.179 23.2599 187.778 23.2599C188.669 23.2599 189.288 22.8857 189.636 22.1374H193.436C193.241 22.8996 192.886 23.5855 192.371 24.1953C191.87 24.805 191.237 25.2831 190.471 25.6295C189.706 25.976 188.85 26.1492 187.903 26.1492C186.762 26.1492 185.746 25.9067 184.855 25.4217C183.964 24.9367 183.268 24.2438 182.767 23.343C182.266 22.4423 182.015 21.3891 182.015 20.1835C182.015 18.9779 182.259 17.9247 182.746 17.024C183.247 16.1232 183.943 15.4304 184.834 14.9454C185.725 14.4603 186.748 14.2178 187.903 14.2178C189.031 14.2178 190.033 14.4534 190.91 14.9246C191.787 15.3957 192.469 16.0678 192.956 16.9408C193.457 17.8139 193.708 18.8324 193.708 19.9964ZM190.054 19.061C190.054 18.4513 189.845 17.9663 189.427 17.606C189.01 17.2457 188.488 17.0656 187.861 17.0656C187.263 17.0656 186.755 17.2388 186.337 17.5852C185.934 17.9317 185.683 18.4236 185.586 19.061H190.054Z" fill="black"/>
<path d="M175.488 14.2594C176.936 14.2594 178.084 14.6959 178.933 15.5689C179.796 16.442 180.228 17.6545 180.228 19.2065V25.9829H176.678V19.6846C176.678 18.9363 176.477 18.3612 176.073 17.9594C175.683 17.5436 175.14 17.3358 174.444 17.3358C173.748 17.3358 173.198 17.5436 172.795 17.9594C172.405 18.3612 172.21 18.9363 172.21 19.6846V25.9829H168.661V19.6846C168.661 18.9363 168.459 18.3612 168.055 17.9594C167.665 17.5436 167.123 17.3358 166.427 17.3358C165.731 17.3358 165.181 17.5436 164.777 17.9594C164.387 18.3612 164.192 18.9363 164.192 19.6846V25.9829H160.622V14.3841H164.192V15.8392C164.554 15.3541 165.028 14.9731 165.612 14.6959C166.197 14.4049 166.858 14.2594 167.596 14.2594C168.473 14.2594 169.252 14.4465 169.934 14.8206C170.63 15.1948 171.173 15.7283 171.563 16.4212C171.967 15.7837 172.516 15.2641 173.212 14.8622C173.908 14.4603 174.667 14.2594 175.488 14.2594Z" fill="black"/>
<path d="M152.631 26.1492C151.49 26.1492 150.46 25.9067 149.541 25.4217C148.637 24.9367 147.92 24.2438 147.391 23.343C146.876 22.4423 146.618 21.3891 146.618 20.1835C146.618 18.9918 146.883 17.9455 147.412 17.0448C147.941 16.1302 148.664 15.4304 149.583 14.9454C150.502 14.4603 151.532 14.2178 152.673 14.2178C153.815 14.2178 154.845 14.4603 155.763 14.9454C156.682 15.4304 157.406 16.1302 157.935 17.0448C158.464 17.9455 158.728 18.9918 158.728 20.1835C158.728 21.3753 158.457 22.4284 157.914 23.343C157.385 24.2438 156.654 24.9367 155.722 25.4217C154.803 25.9067 153.773 26.1492 152.631 26.1492ZM152.631 23.0728C153.314 23.0728 153.891 22.8234 154.364 22.3245C154.852 21.8256 155.095 21.112 155.095 20.1835C155.095 19.2551 154.859 18.5414 154.385 18.0425C153.926 17.5436 153.355 17.2942 152.673 17.2942C151.977 17.2942 151.4 17.5436 150.94 18.0425C150.481 18.5275 150.251 19.2412 150.251 20.1835C150.251 21.112 150.474 21.8256 150.919 22.3245C151.379 22.8234 151.949 23.0728 152.631 23.0728Z" fill="black"/>
<path d="M141.967 16.3172C142.385 15.6798 142.907 15.1809 143.533 14.8206C144.16 14.4465 144.856 14.2594 145.621 14.2594V18.0217H144.64C143.749 18.0217 143.081 18.2157 142.635 18.6037C142.19 18.9779 141.967 19.6431 141.967 20.5992V25.9829H138.397V14.3841H141.967V16.3172Z" fill="black"/>
<path d="M123.516 20.1627C123.516 18.971 123.739 17.9247 124.184 17.024C124.644 16.1232 125.263 15.4304 126.043 14.9454C126.822 14.4603 127.692 14.2178 128.652 14.2178C129.474 14.2178 130.191 14.3841 130.803 14.7167C131.429 15.0493 131.91 15.4858 132.244 16.0262V14.3841H135.814V25.9829H132.244V24.3408C131.896 24.8812 131.409 25.3177 130.782 25.6503C130.17 25.9829 129.453 26.1492 128.632 26.1492C127.685 26.1492 126.822 25.9067 126.043 25.4217C125.263 24.9228 124.644 24.223 124.184 23.3222C123.739 22.4076 123.516 21.3545 123.516 20.1627ZM132.244 20.1835C132.244 19.2966 131.993 18.5968 131.492 18.0841C131.005 17.5714 130.406 17.315 129.696 17.315C128.987 17.315 128.381 17.5714 127.88 18.0841C127.393 18.583 127.149 19.2758 127.149 20.1627C127.149 21.0496 127.393 21.7563 127.88 22.2829C128.381 22.7957 128.987 23.052 129.696 23.052C130.406 23.052 131.005 22.7957 131.492 22.2829C131.993 21.7702 132.244 21.0704 132.244 20.1835Z" fill="black"/>
<path d="M119.337 18.4998C120.186 18.68 120.868 19.1026 121.383 19.7678C121.898 20.4191 122.155 21.1674 122.155 22.0127C122.155 23.2322 121.724 24.2022 120.861 24.9228C120.012 25.6295 118.822 25.9829 117.29 25.9829H110.463V11.3909H117.061C118.55 11.3909 119.712 11.7304 120.548 12.4094C121.397 13.0884 121.821 14.01 121.821 15.174C121.821 16.0332 121.592 16.7468 121.132 17.315C120.687 17.8832 120.088 18.2781 119.337 18.4998ZM114.033 17.2942H116.372C116.956 17.2942 117.402 17.1695 117.708 16.9201C118.028 16.6568 118.188 16.2757 118.188 15.7768C118.188 15.2779 118.028 14.8969 117.708 14.6336C117.402 14.3703 116.956 14.2386 116.372 14.2386H114.033V17.2942ZM116.664 23.1144C117.263 23.1144 117.722 22.9827 118.042 22.7194C118.376 22.4423 118.543 22.0474 118.543 21.5346C118.543 21.0219 118.369 20.62 118.021 20.329C117.687 20.038 117.221 19.8925 116.622 19.8925H114.033V23.1144H116.664Z" fill="black"/>
<path d="M96.377 20.1627C96.377 18.971 96.5997 17.9247 97.0451 17.024C97.5044 16.1232 98.1239 15.4304 98.9034 14.9454C99.6829 14.4603 100.553 14.2178 101.513 14.2178C102.279 14.2178 102.975 14.3772 103.601 14.6959C104.242 15.0146 104.743 15.4442 105.105 15.9847V10.601H108.675V25.9829H105.105V24.32C104.77 24.8743 104.29 25.3177 103.664 25.6503C103.051 25.9829 102.335 26.1492 101.513 26.1492C100.553 26.1492 99.6829 25.9067 98.9034 25.4217C98.1239 24.9228 97.5044 24.223 97.0451 23.3222C96.5997 22.4076 96.377 21.3545 96.377 20.1627ZM105.105 20.1835C105.105 19.2966 104.854 18.5968 104.353 18.0841C103.866 17.5714 103.267 17.315 102.557 17.315C101.847 17.315 101.242 17.5714 100.741 18.0841C100.254 18.583 100.01 19.2758 100.01 20.1627C100.01 21.0496 100.254 21.7563 100.741 22.2829C101.242 22.7957 101.847 23.052 102.557 23.052C103.267 23.052 103.866 22.7957 104.353 22.2829C104.854 21.7702 105.105 21.0704 105.105 20.1835Z" fill="black"/>
<path d="M90.1166 14.2594C91.4807 14.2594 92.5664 14.7028 93.3738 15.5897C94.195 16.4627 94.6057 17.6684 94.6057 19.2065V25.9829H91.0562V19.6846C91.0562 18.9086 90.8543 18.3058 90.4507 17.8762C90.047 17.4466 89.5041 17.2318 88.8221 17.2318C88.14 17.2318 87.5971 17.4466 87.1935 17.8762C86.7898 18.3058 86.588 18.9086 86.588 19.6846V25.9829H83.0176V14.3841H86.588V15.9223C86.9499 15.4096 87.4371 15.0077 88.0495 14.7167C88.662 14.4118 89.351 14.2594 90.1166 14.2594Z" fill="black"/>
<path d="M81.1344 19.9964C81.1344 20.329 81.1135 20.6755 81.0717 21.0357H72.9914C73.0471 21.7563 73.2767 22.3106 73.6804 22.6987C74.098 23.0728 74.6061 23.2599 75.2046 23.2599C76.0955 23.2599 76.7149 22.8857 77.0629 22.1374H80.8629C80.6681 22.8996 80.3131 23.5855 79.7981 24.1953C79.297 24.805 78.6636 25.2831 77.8981 25.6295C77.1325 25.976 76.2764 26.1492 75.3299 26.1492C74.1885 26.1492 73.1724 25.9067 72.2815 25.4217C71.3906 24.9367 70.6947 24.2438 70.1936 23.343C69.6924 22.4423 69.4419 21.3891 69.4419 20.1835C69.4419 18.9779 69.6855 17.9247 70.1727 17.024C70.6738 16.1232 71.3698 15.4304 72.2606 14.9454C73.1515 14.4603 74.1746 14.2178 75.3299 14.2178C76.4574 14.2178 77.4596 14.4534 78.3365 14.9246C79.2135 15.3957 79.8955 16.0678 80.3827 16.9408C80.8838 17.8139 81.1344 18.8324 81.1344 19.9964ZM77.4805 19.061C77.4805 18.4513 77.2717 17.9663 76.8541 17.606C76.4365 17.2457 75.9145 17.0656 75.2881 17.0656C74.6896 17.0656 74.1815 17.2388 73.7639 17.5852C73.3603 17.9317 73.1097 18.4236 73.0123 19.061H77.4805Z" fill="black"/>
<path d="M67.564 10.601V25.9829H63.9937V10.601H67.564Z" fill="black"/>
<path d="M59.1042 18.4998C59.9533 18.68 60.6354 19.1026 61.1504 19.7678C61.6654 20.4191 61.923 21.1674 61.923 22.0127C61.923 23.2322 61.4914 24.2022 60.6284 24.9228C59.7793 25.6295 58.5892 25.9829 57.058 25.9829H50.2305V11.3909H56.8284C58.3178 11.3909 59.4801 11.7304 60.3152 12.4094C61.1643 13.0884 61.5889 14.01 61.5889 15.174C61.5889 16.0332 61.3592 16.7468 60.8999 17.315C60.4544 17.8832 59.8559 18.2781 59.1042 18.4998ZM53.8009 17.2942H56.1393C56.724 17.2942 57.1694 17.1695 57.4756 16.9201C57.7958 16.6568 57.9559 16.2757 57.9559 15.7768C57.9559 15.2779 57.7958 14.8969 57.4756 14.6336C57.1694 14.3703 56.724 14.2386 56.1393 14.2386H53.8009V17.2942ZM56.4317 23.1144C57.0302 23.1144 57.4896 22.9827 57.8097 22.7194C58.1438 22.4423 58.3108 22.0474 58.3108 21.5346C58.3108 21.0219 58.1368 20.62 57.7888 20.329C57.4548 20.038 56.9884 19.8925 56.3899 19.8925H53.8009V23.1144H56.4317Z" fill="black"/>
</svg>
