<svg width="40" height="40" viewBox="0 0 40 40" fill="none" xmlns="http://www.w3.org/2000/svg">
<g clip-path="url(#clip0_42_1450)">
<path d="M20.0002 0.000488281C8.95441 0.000488281 0 8.95393 0 20.0007C0 31.0456 8.95441 40 20.0002 40C31.0456 40 40 31.0456 40 20.0007C40 8.95393 31.0456 0.000488281 20.0002 0.000488281Z" fill="#3AA873"/>
<path d="M22.4742 11.7236C22.2221 11.4009 21.8876 11.2394 21.4704 11.2394C21.1002 11.2394 20.8483 11.3103 20.7146 11.452C20.5806 11.5937 20.2932 11.9716 19.8525 12.5858C19.4115 13.1998 18.9057 13.7549 18.335 14.2509C17.7641 14.7468 17.0024 15.2193 16.0498 15.668C15.4121 15.9673 14.9672 16.2112 14.7153 16.4002C14.4633 16.5892 14.3374 16.8844 14.3374 17.2859C14.3374 17.6324 14.4653 17.9374 14.7212 18.2011C14.977 18.465 15.2704 18.5967 15.601 18.5967C16.2937 18.5967 17.6401 17.8292 19.6399 16.2939V27.0406C19.6399 27.6705 19.7855 28.1468 20.0769 28.4696C20.3681 28.7923 20.7538 28.9538 21.2342 28.9538C22.3127 28.9538 22.852 28.1626 22.852 26.5801V13.0581C22.8521 12.4913 22.7261 12.0466 22.4742 11.7236Z" fill="white"/>
</g>
<defs>
<clipPath id="clip0_42_1450">
<rect width="40" height="40" fill="white"/>
</clipPath>
</defs>
</svg>
