<svg width="40" height="40" viewBox="0 0 40 40" fill="none" xmlns="http://www.w3.org/2000/svg">
<g clip-path="url(#clip0_42_1477)">
<path d="M20.0002 0.000488281C8.95441 0.000488281 0 8.95393 0 20.0007C0 31.0456 8.95441 40 20.0002 40C31.0456 40 40 31.0456 40 20.0007C40 8.95393 31.0456 0.000488281 20.0002 0.000488281Z" fill="#3AA873"/>
<path d="M25.7689 21.744C25.5564 21.2284 25.2394 20.7579 24.8183 20.3327C24.397 19.9076 23.8794 19.5297 23.2653 19.199C23.903 18.6636 24.3931 18.1145 24.7356 17.5515C25.078 16.9887 25.2493 16.3136 25.2493 15.5262C25.2493 14.928 25.1312 14.3689 24.8949 13.8492C24.6587 13.3295 24.3084 12.8731 23.8439 12.4793C23.3793 12.0857 22.8321 11.7846 22.2024 11.5759C21.5725 11.3674 20.8757 11.2629 20.1121 11.2629C19.2382 11.2629 18.447 11.3869 17.7384 11.6349C17.0299 11.8829 16.4373 12.2118 15.9611 12.621C15.4846 13.0304 15.1227 13.4615 14.8746 13.9141C14.6266 14.367 14.5026 14.7979 14.5026 15.2072C14.5026 15.6324 14.6343 15.9731 14.8982 16.2288C15.1619 16.4847 15.4512 16.6126 15.7662 16.6126C16.0338 16.6126 16.27 16.5654 16.4748 16.4709C16.6794 16.3764 16.8212 16.2465 16.8999 16.0812C17.0337 15.7741 17.1813 15.4475 17.3428 15.101C17.504 14.7546 17.6753 14.4712 17.8565 14.2507C18.0375 14.0304 18.2834 13.8532 18.5945 13.7193C18.9054 13.5855 19.3011 13.5185 19.7814 13.5185C20.49 13.5185 21.0528 13.737 21.4702 14.1739C21.8874 14.6109 22.0961 15.1326 22.0961 15.7387C22.0961 16.534 21.8342 17.144 21.3108 17.5692C20.7871 17.9943 20.1632 18.2069 19.4389 18.2069H18.9547C18.3956 18.2069 17.9746 18.3231 17.6911 18.5552C17.4077 18.7876 17.266 19.0925 17.266 19.4705C17.266 19.8563 17.3841 20.1574 17.6203 20.3739C17.8565 20.5905 18.191 20.6986 18.6241 20.6986C18.7186 20.6986 18.9312 20.683 19.2618 20.6514C19.5925 20.62 19.8364 20.6042 19.994 20.6042C20.8915 20.6042 21.5921 20.866 22.0961 21.3895C22.5999 21.9132 22.8519 22.6354 22.8519 23.5565C22.8519 24.1786 22.7043 24.7257 22.409 25.198C22.1138 25.6704 21.7397 26.0267 21.2871 26.2668C20.8343 26.507 20.364 26.627 19.8759 26.627C19.0256 26.627 18.3661 26.3613 17.8978 25.8298C17.4293 25.2984 16.9904 24.4856 16.5811 23.3912C16.5179 23.2102 16.3842 23.0546 16.1796 22.9247C15.9747 22.7948 15.7622 22.7299 15.5419 22.7299C15.1009 22.7299 14.7329 22.8697 14.4377 23.1491C14.1425 23.4287 13.9949 23.7968 13.9949 24.2532C13.9949 24.6076 14.1189 25.0563 14.3669 25.5995C14.6148 26.1427 14.9809 26.6683 15.4651 27.1761C15.9493 27.6839 16.5653 28.1072 17.3133 28.4456C18.0612 28.7841 18.9076 28.9534 19.8524 28.9534C20.7813 28.9534 21.6297 28.8058 22.3973 28.5106C23.1649 28.2154 23.8281 27.8061 24.3872 27.2824C24.9461 26.759 25.3692 26.1625 25.6567 25.4933C25.944 24.8243 26.0878 24.1313 26.0878 23.4149C26.0878 22.8168 25.9815 22.2598 25.7689 21.744Z" fill="white"/>
</g>
<defs>
<clipPath id="clip0_42_1477">
<rect width="40" height="40" fill="white"/>
</clipPath>
</defs>
</svg>
