<svg width="40" height="40" viewBox="0 0 40 40" fill="none" xmlns="http://www.w3.org/2000/svg">
<g clip-path="url(#clip0_42_1458)">
<path d="M20.0002 0.000488281C8.95441 0.000488281 0 8.95393 0 20.0007C0 31.0456 8.95441 40 20.0002 40C31.0456 40 40 31.0456 40 20.0007C40 8.95393 31.0456 0.000488281 20.0002 0.000488281Z" fill="#3AA873"/>
<path d="M25.7808 26.2493C25.4579 25.9974 24.9896 25.8713 24.3754 25.8713H18.2109C18.4076 25.5722 18.6006 25.3163 18.7895 25.1038C19.2304 24.5684 20.0432 23.8165 21.2282 22.8481C22.413 21.8797 23.2574 21.1693 23.7613 20.7165C24.2651 20.2639 24.7593 19.638 25.2435 18.8388C25.7277 18.0398 25.9698 17.1521 25.9698 16.1758C25.9698 15.554 25.8535 14.9535 25.6214 14.3748C25.3891 13.7961 25.0643 13.2865 24.6471 12.8455C24.2297 12.4047 23.7455 12.0583 23.1945 11.8062C22.3442 11.4283 21.3168 11.2394 20.1123 11.2394C19.1123 11.2394 18.2404 11.387 17.4965 11.6822C16.7525 11.9775 16.1384 12.3653 15.6542 12.8455C15.17 13.3258 14.8057 13.8611 14.5618 14.4516C14.3177 15.042 14.1957 15.6089 14.1957 16.1522C14.1957 16.6009 14.3256 16.9552 14.5854 17.2151C14.8452 17.4749 15.1718 17.6048 15.5656 17.6048C16.0143 17.6048 16.3548 17.463 16.5871 17.1797C16.8192 16.8962 17.0279 16.4909 17.213 15.9633C17.3979 15.4359 17.5299 15.113 17.6086 14.9949C18.1991 14.0896 19.0099 13.6368 20.0414 13.6368C20.5295 13.6368 20.9803 13.7471 21.3936 13.9675C21.8069 14.188 22.1335 14.4971 22.3737 14.8945C22.6138 15.2922 22.7339 15.7429 22.7339 16.2467C22.7339 16.7113 22.6217 17.1856 22.3973 17.6697C22.173 18.1538 21.8461 18.6262 21.4172 19.0868C20.988 19.5474 20.4506 20.0061 19.8052 20.4626C19.443 20.7067 18.8407 21.2165 17.9983 21.9919C17.1558 22.7675 16.2111 23.6984 15.1641 24.7849C14.9121 25.0526 14.6799 25.4208 14.4673 25.8891C14.2547 26.3576 14.1484 26.7335 14.1484 27.0169C14.1484 27.4578 14.3138 27.8417 14.6444 28.1683C14.9751 28.4951 15.4356 28.6583 16.0261 28.6583H24.718C25.2376 28.6583 25.6253 28.5246 25.8812 28.2569C26.137 27.9893 26.2651 27.6625 26.2651 27.2767C26.265 26.8438 26.1035 26.5014 25.7808 26.2493Z" fill="white"/>
</g>
<defs>
<clipPath id="clip0_42_1458">
<rect width="40" height="40" fill="white"/>
</clipPath>
</defs>
</svg>
